<svg xmlns="http://www.w3.org/2000/svg" xmlns:xlink="http://www.w3.org/1999/xlink" viewBox="0 0 179.47 140.38"><defs><style>.cls-1{fill:url(#radial-gradient);}.cls-2{fill:none;stroke:#00559b;stroke-linecap:round;stroke-miterlimit:10;stroke-width:10.75px;}.cls-3{fill:#00559b;}</style><radialGradient id="radial-gradient" cx="89.58" cy="70.39" r="75.72" gradientUnits="userSpaceOnUse"><stop offset="0.29" stop-color="#dff"/><stop offset="1" stop-color="#3caaff"/></radialGradient></defs><title>logo-icon</title><g id="Layer_2" data-name="Layer 2"><g id="site_v2" data-name="site v2"><path class="cls-1" d="M137.08,33.66c-6.14,0-12.21,0-12.21,0-3.45-16.89-18.39-28.92-36.3-28.92A37.07,37.07,0,0,0,52.24,34.41a37.06,37.06,0,1,0-10.16,72.7c6.14,0,12.2.06,12.2.06,3.46,16.88,18.4,28.91,36.31,28.91a37.08,37.08,0,0,0,36.33-29.71,37.43,37.43,0,0,0,10.16,1.41,37.06,37.06,0,0,0,0-74.12Z"/><path class="cls-2" d="M128.47,105.35a36.37,36.37,0,1,0,9.26-71.54c-6,0-12-.06-12-.06C122.36,17.18,107.69,5.38,90.12,5.38A36.36,36.36,0,0,0,53.75,41.74,36.57,36.57,0,0,0,76,75.87"/><path class="cls-2" d="M51,35a36.37,36.37,0,1,0-9.26,71.54c6,0,12,.06,12,.06C57.11,123.2,71.78,135,89.35,135a36.73,36.73,0,0,0,13.32-70.82"/><path class="cls-3" d="M78.37,65.91l5.12,11.84a1.05,1.05,0,0,1-.56,1.4L71.1,84.27a1.07,1.07,0,0,1-1.42-1.37l6.71-17A1.07,1.07,0,0,1,78.37,65.91Z"/><path class="cls-3" d="M101.09,74.16,96,62.33a1.07,1.07,0,0,1,.55-1.41l11.84-5.12a1.07,1.07,0,0,1,1.42,1.38l-6.71,16.95A1.07,1.07,0,0,1,101.09,74.16Z"/></g></g></svg>